<svg xmlns="http://www.w3.org/2000/svg" width="75" viewBox="0 0 75 165" height="165" version="1.0"><defs><clipPath id="a"><path d="M 2.015625 0 L 72.835938 0 L 72.835938 164 L 2.015625 164 Z M 2.015625 0"/></clipPath></defs><g clip-path="url(#a)"><path fill="#FF1A3E" d="M 21.183594 0.0351562 L 53.683594 0.0351562 L 72.851562 163.972656 L 47.363281 163.972656 L 45.019531 132.117188 L 29.824219 132.117188 L 27.496094 163.972656 L 2.015625 163.972656 Z M 32.164062 108.699219 L 42.6875 108.699219 L 41.050781 84.582031 C 40.269531 74.738281 39.570312 64.941406 38.949219 55.1875 C 38.328125 45.4375 37.859375 36.109375 37.542969 27.203125 L 37.3125 27.203125 C 36.839844 36.257812 36.332031 45.664062 35.792969 55.421875 C 35.25 65.179688 34.589844 74.902344 33.800781 84.582031 Z M 32.164062 108.699219"/></g></svg>