<svg xmlns="http://www.w3.org/2000/svg" width="75" viewBox="0 0 75 236.25" height="236.25" version="1.0"><defs><clipPath id="a"><path d="M 0.117188 0 L 74.878906 0 L 74.878906 235.503906 L 0.117188 235.503906 Z M 0.117188 0"/></clipPath><clipPath id="b"><path d="M 0.117188 0 L 74.132812 0 L 74.132812 234.753906 L 0.117188 234.753906 Z M 0.117188 0"/></clipPath></defs><g clip-path="url(#a)" fill="#FFF"><path d="M 0.117188 0 L 74.882812 0 L 74.882812 242.980469 L 0.117188 242.980469 Z M 0.117188 0"/><path d="M 0.117188 0 L 74.882812 0 L 74.882812 235.503906 L 0.117188 235.503906 Z M 0.117188 0"/></g><g clip-path="url(#b)"><path fill="#FF1A3E" d="M 36.292969 200.542969 L 74.070312 200.542969 L 74.070312 234.753906 L 0.195312 234.753906 L 0.195312 0 L 74.070312 0 L 74.070312 34.210938 L 36.292969 34.210938 L 36.292969 99.265625 L 69.378906 99.265625 L 69.378906 132.808594 L 36.292969 132.808594 Z M 36.292969 200.542969"/></g></svg>