<svg xmlns="http://www.w3.org/2000/svg" width="75" viewBox="0 0 75 67.5" height="67.5" version="1.0" preserveAspectRatio="none"><defs><clipPath id="a"><path d="M 0.277344 1 L 74.722656 1 L 74.722656 65.726562 L 0.277344 65.726562 Z M 0.277344 1"/></clipPath></defs><g clip-path="url(#a)"><path fill="#9BA1B9" d="M 53.578125 18.882812 C 53.464844 15.09375 52.054688 1.03125 37.503906 1.03125 C 24.558594 1.03125 21.65625 13.078125 21.019531 18.601562 L 0.277344 18.441406 L 7.890625 65.652344 L 65.671875 65.652344 L 74.722656 19.050781 Z M 37.207031 3.644531 C 49.214844 3.644531 50.433594 15.382812 50.53125 18.851562 L 23.988281 18.640625 C 24.414062 13.679688 26.601562 3.644531 37.207031 3.644531 Z M 37.207031 3.644531"/></g><path fill="#FFF" d="M 45.964844 41.320312 C 45.964844 50.679688 42.507812 55.835938 36.429688 55.835938 C 31.101562 55.835938 27.445312 50.800781 27.359375 41.703125 C 27.359375 32.480469 31.328125 27.402344 36.894531 27.402344 C 42.683594 27.402344 45.964844 32.566406 45.964844 41.320312 Z M 31.078125 41.75 C 31.078125 48.898438 33.269531 52.960938 36.644531 52.960938 C 40.449219 52.960938 42.253906 48.515625 42.253906 41.503906 C 42.253906 34.726562 40.527344 30.289062 36.679688 30.289062 C 33.445312 30.28125 31.085938 34.253906 31.085938 41.75 Z M 31.078125 41.75"/></svg>